<?xml version="1.0" encoding="utf-8"?>
<!-- Generator: Adobe Illustrator 24.0.2, SVG Export Plug-In . SVG Version: 6.00 Build 0)  -->
<svg version="1.1" id="Capa_1" xmlns="http://www.w3.org/2000/svg" xmlns:xlink="http://www.w3.org/1999/xlink" x="0px" y="0px"
	 viewBox="0 0 1080 1080" style="enable-background:new 0 0 1080 1080;" xml:space="preserve">
<style type="text/css">
	.st0{fill:#FFFFFF;}
</style>
<g>
	<path class="st0" d="M540.14,1079.98c-136.16,0-272.32,0.06-408.48-0.03c-60.23-0.04-108.19-33.26-125.44-88.08
		c-4.29-13.62-6.24-28.53-6.26-42.86C-0.4,676.45-0.38,403.87-0.25,131.3C-0.21,55.16,54.07,0.29,130.27,0.22
		c273.05-0.28,546.1-0.3,819.15,0.02c76.43,0.09,130.2,54.94,130.21,131.28c0.04,272.57,0.05,545.14-0.01,817.71
		c-0.01,65.54-42.11,117.24-104.94,128.66c-9.59,1.74-19.55,2.01-29.34,2.01C810.27,1080.02,675.2,1079.98,540.14,1079.98z
		 M450.74,506.25c40.8-11.35,67.72-35.39,76.43-75.1c4.36-19.87,5.24-41.31,3.27-61.61c-5.54-57.04-34.61-98.47-87.98-121.53
		c-29.33-12.67-60.48-15.3-91.91-15.35c-96.13-0.16-192.26,0.16-288.39-0.35c-11.51-0.06-13.65,3.49-13.63,14.13
		c0.31,191.45,0.22,382.9,0.22,574.35c0,4.24,0,8.48,0,13.6c6,0,10.33,0,14.65,0c97.22,0,194.45,0.37,291.66-0.3
		c20.58-0.14,41.6-2,61.61-6.59c61.19-14.03,108.49-46.13,127.5-109.23c13.66-45.36,12.81-91.28-2.34-136.38
		c-10.13-30.16-27.89-54.37-58.64-66.43C473.53,511.67,463.15,509.71,450.74,506.25z M706.31,646.73c103.86,0,207.05,0,310.39,0
		c0.57-2.46,1.08-3.82,1.17-5.21c2.59-42.84-0.61-85.05-14.53-125.96c-21.65-63.63-64.22-105.28-129.93-121.88
		c-35.37-8.94-71.36-9.53-107.32-4.66c-61.45,8.32-112.7,35.22-146.27,88.54c-42.78,67.95-54.88,141.54-33.02,219.6
		c18.29,65.33,57.98,112.33,122.75,134.4c62.16,21.18,125.77,21.8,189.04,3.61c38.84-11.17,72.13-31.05,93.93-66.45
		c15.22-24.71,21.09-51.9,20.8-81.77c-34.27,0-67.34-0.13-100.4,0.31c-2.01,0.03-5.26,4.36-5.73,7.08
		c-4.25,24.34-18.94,40.59-41.41,47.76c-17.03,5.44-35.42,8.34-53.33,9.02C747.21,753.58,706.57,713.72,706.31,646.73z
		 M678.74,268.85c0,25.23,0,49.07,0,73.42c82.72,0,164.72,0,246.91,0c0-24.88,0-49.02,0-73.42
		C843.11,268.85,761.33,268.85,678.74,268.85z"/>
	<path d="M450.74,506.25c12.41,3.46,22.79,5.42,32.46,9.21c30.74,12.06,48.51,36.27,58.64,66.43c15.15,45.09,16,91.02,2.34,136.38
		c-19.01,63.09-66.3,95.19-127.5,109.23c-20.01,4.59-41.03,6.45-61.61,6.59c-97.22,0.66-194.44,0.3-291.66,0.3
		c-4.32,0-8.64,0-14.65,0c0-5.12,0-9.36,0-13.6c0-191.45,0.08-382.9-0.22-574.35c-0.02-10.64,2.12-14.19,13.63-14.13
		c96.13,0.51,192.26,0.19,288.39,0.35c31.43,0.05,62.57,2.68,91.91,15.35c53.37,23.06,82.44,64.49,87.98,121.53
		c1.97,20.3,1.09,41.74-3.27,61.61C518.46,470.86,491.54,494.9,450.74,506.25z M187.62,726.73c59.47,0,117.64,1.16,175.72-0.5
		c27.83-0.8,50.2-15.37,56.99-44.06c4-16.91,4.64-35.35,2.97-52.73c-3.89-40.31-30.6-62.89-71.17-62.92
		c-50.58-0.04-101.17-0.01-151.75-0.01c-3.89,0-7.78,0-11.93,0c-0.39,3.03-0.81,4.78-0.81,6.52
		C187.61,623.93,187.62,674.83,187.62,726.73z M188.04,474.07c12.64,0,24.21,0.02,35.79,0c44-0.11,88.02,0.3,132-0.55
		c25.77-0.5,39.35-11.35,44.33-36.54c3.2-16.16,4.54-33.37,2.81-49.69c-3.56-33.65-20.53-47.11-54.67-47.11
		c-49.1,0-98.2-0.01-147.3,0.03c-4.2,0-8.4,0.36-12.96,0.58C188.04,385.5,188.04,429.02,188.04,474.07z"/>
	<path d="M706.31,646.73c0.26,66.99,40.9,106.85,106.16,104.39c17.91-0.67,36.3-3.58,53.33-9.02c22.47-7.18,37.16-23.42,41.41-47.76
		c0.47-2.71,3.72-7.05,5.73-7.08c33.06-0.44,66.13-0.31,100.4-0.31c0.29,29.87-5.58,57.06-20.8,81.77
		c-21.8,35.4-55.09,55.29-93.93,66.45c-63.27,18.19-126.88,17.57-189.04-3.61c-64.76-22.07-104.46-69.07-122.75-134.4
		c-21.86-78.07-9.77-151.65,33.02-219.6c33.57-53.32,84.82-80.22,146.27-88.54c35.96-4.87,71.94-4.28,107.32,4.66
		c65.71,16.61,108.28,58.26,129.93,121.88c13.92,40.91,17.12,83.12,14.53,125.96c-0.08,1.39-0.6,2.75-1.17,5.21
		C913.36,646.73,810.17,646.73,706.31,646.73z M901.65,565.58c-2.99-32.64-12.34-60.84-40.73-78.1
		c-60.66-36.89-146.32,4.83-155.38,75.22c-0.11,0.89,0.54,1.87,0.86,2.88C771.29,565.58,835.86,565.58,901.65,565.58z"/>
	<path d="M678.74,268.85c82.59,0,164.37,0,246.91,0c0,24.4,0,48.54,0,73.42c-82.2,0-164.19,0-246.91,0
		C678.74,317.92,678.74,294.07,678.74,268.85z"/>
	<path class="st0" d="M187.62,726.73c0-51.89-0.01-102.8,0.03-153.71c0-1.75,0.42-3.49,0.81-6.52c4.15,0,8.04,0,11.93,0
		c50.58,0,101.17-0.03,151.75,0.01c40.56,0.03,67.27,22.61,71.17,62.92c1.68,17.38,1.04,35.82-2.97,52.73
		c-6.79,28.69-29.16,43.27-56.99,44.06C305.26,727.89,247.09,726.73,187.62,726.73z"/>
	<path class="st0" d="M188.04,474.07c0-45.06,0-88.58,0-133.29c4.56-0.21,8.76-0.57,12.96-0.58c49.1-0.04,98.2-0.03,147.3-0.03
		c34.14,0,51.11,13.45,54.67,47.11c1.73,16.32,0.39,33.53-2.81,49.69c-4.98,25.19-18.56,36.04-44.33,36.54
		c-43.99,0.85-88,0.45-132,0.55C212.25,474.1,200.67,474.07,188.04,474.07z"/>
	<path class="st0" d="M901.65,565.58c-65.79,0-130.36,0-195.25,0c-0.32-1.01-0.97-2-0.86-2.88c9.06-70.38,94.71-112.11,155.38-75.22
		C889.31,504.74,898.66,532.93,901.65,565.58z"/>
</g>
</svg>
