<?xml version="1.0" encoding="utf-8"?>
<!-- Generator: Adobe Illustrator 24.0.2, SVG Export Plug-In . SVG Version: 6.00 Build 0)  -->
<svg version="1.1" id="Capa_1" xmlns="http://www.w3.org/2000/svg" xmlns:xlink="http://www.w3.org/1999/xlink" x="0px" y="0px"
	 viewBox="0 0 1080 809.8" style="enable-background:new 0 0 1080 809.8;" xml:space="preserve">
<style type="text/css">
	.st0{fill:#FFFFFF;}
</style>
<g>
	<path class="st0" d="M539.97,0.05c120.01,0,240.03,0.05,360.04-0.02c60.37-0.03,109.76,22.66,146.16,71.29
		c20.65,27.58,32.74,59,33.19,93.53c0.88,68.8,0.48,137.61,0.51,206.42c0.04,87.61,0.31,175.22-0.1,262.83
		c-0.36,77.23-44.45,140.38-117.32,165.62c-19.25,6.67-40.74,9.54-61.21,9.59c-240.83,0.64-481.66,0.6-722.48,0.32
		c-92.64-0.11-163.1-60.38-177.03-150.39c-1.34-8.65-1.56-17.53-1.57-26.31C0.07,480.91-0.12,328.89,0.19,176.87
		C0.35,92.82,54.48,23.06,133.53,5.16c16.22-3.67,33.31-4.85,50-4.91C302.35-0.14,421.16,0.04,539.97,0.05z M540.03,759.3
		c119.61,0,239.22,0.05,358.82-0.02c79.13-0.05,130.54-51.56,130.59-130.91c0.08-148.81,0.07-297.62,0-446.43
		c-0.04-80.14-51.26-131.44-131.25-131.45c-238.82-0.04-477.63-0.05-716.45,0C101.76,50.51,50.56,101.81,50.53,182
		c-0.07,148.81-0.03,297.62,0.02,446.43c0,7.59,0.11,15.23,0.99,22.76c7.28,62.57,59.25,107.86,124.87,108.02
		C297.61,759.5,418.82,759.29,540.03,759.3z"/>
	<path class="st0" d="M665.48,450.69c-3.82,3.52-7.07,6.37-10.15,9.38c-30.37,29.6-60.7,59.25-91.09,88.84
		c-18.24,17.76-30.2,17.83-48.25,0.26c-30.1-29.31-60.14-58.68-90.23-88c-3.08-3-6.33-5.84-10.24-9.44
		c-7.09,6.53-13.58,12.35-19.9,18.35c-70.49,66.96-140.96,133.95-211.45,200.91c-3.77,3.58-7.5,7.25-11.61,10.41
		c-12.86,9.88-27.38,8.59-37.53-3.08c-9.12-10.49-8.33-24.24,3.15-35.32c27.64-26.67,55.62-52.99,83.52-79.39
		c49.4-46.75,98.86-93.45,148.26-140.2c2.53-2.4,4.76-5.12,10-10.82c-4.63-3.01-9.25-5.05-12.64-8.35
		c-75.41-73.4-150.68-146.93-225.96-220.46c-3.72-3.63-7.52-7.24-10.75-11.28c-7.56-9.47-6.97-21.73,1.09-30.67
		c9.18-10.18,22.2-12.94,32.32-6.21c4.95,3.29,9.39,7.46,13.68,11.63c116.69,113.59,233.33,227.23,349.99,340.85
		c3.68,3.58,7.46,7.07,12.08,11.45c4.32-3.93,8.17-7.23,11.79-10.76c116.95-113.89,233.89-227.81,350.84-341.7
		c3.15-3.07,6.32-6.15,9.79-8.83c11.98-9.28,25.14-8.13,35.32,2.89c9.78,10.59,9.98,23.36-0.63,34.22
		c-16.77,17.17-34.06,33.84-51.24,50.6c-60.42,58.97-120.86,117.91-181.38,176.77c-3.42,3.33-7.65,5.83-11.5,8.72
		c-0.74,2.05-1.48,4.1-2.22,6.15c4.29,2.25,9.36,3.68,12.76,6.88c75.98,71.63,151.8,143.44,227.6,215.27
		c18.66,17.68,15.23,39.65-7.09,47.08c-11.6,3.86-20.25-1.49-28.1-8.87c-20.99-19.73-41.83-39.62-62.72-59.45
		c-55.71-52.89-111.41-105.8-167.13-158.68C672.74,456.86,669.4,454.13,665.48,450.69z"/>
</g>
</svg>
