<?xml version="1.0" encoding="utf-8"?>
<!-- Generator: Adobe Illustrator 24.0.2, SVG Export Plug-In . SVG Version: 6.00 Build 0)  -->
<svg version="1.1" id="Capa_1" xmlns="http://www.w3.org/2000/svg" xmlns:xlink="http://www.w3.org/1999/xlink" x="0px" y="0px"
	 viewBox="0 0 1080 1080" style="enable-background:new 0 0 1080 1080;" xml:space="preserve">
<style type="text/css">
	.st0{fill:#FFFFFF;}
</style>
<g>
	<path class="st0" d="M-0.32,729.91c0-127.52,0-255.05,0-382.57c1.25-14.25,2.79-28.49,3.69-42.76
		c4.82-76.13,23.9-146.89,76.27-205.4c59.61-66.6,137.11-95.71,223.37-97.21c158.6-2.77,317.3-2.46,475.91-0.07
		c75.56,1.13,145.46,24.32,203.11,76.69c65.63,59.62,94.22,136.69,95.71,222.24c2.75,158.6,4.11,317.37-0.13,475.9
		c-4.52,169.03-108.22,277.06-275.66,296.97c-23.13,2.75-46.4,4.24-69.61,6.31c-127.52,0-255.05,0-382.57,0
		c-15.4-1.3-30.77-3.05-46.2-3.82c-169.23-8.38-277.81-109.17-297.6-276.77C3.24,776.33,1.75,753.09-0.32,729.91z M986.76,539.68
		c-0.66-0.02-1.31-0.04-1.97-0.06c0-9.62,0.24-19.24-0.04-28.86c-2.25-77.46-1.06-155.23-7.82-232.31
		c-8.44-96.35-66.75-158.26-162.29-173.34c-53.1-8.38-107.73-9.28-161.69-9.5C539.97,95.14,426.91,95.39,314,99
		c-121.72,3.89-194.85,65.86-208.63,175.69c-6.34,50.51-7.44,101.91-7.49,152.92c-0.12,112.99-0.2,226.05,3.64,338.95
		c4.33,127.38,67.83,202.62,192.62,208.55c164.24,7.81,329.38,7.58,493.65,0.07c121.07-5.54,180.3-70.56,191.14-192.32
		C986.11,702.22,984.46,620.78,986.76,539.68z"/>
	<path class="st0" d="M540.82,260.66c154.58-0.05,278.32,123.89,278.2,278.64c-0.12,153.48-124.09,277.25-277.74,277.3
		c-154.58,0.05-278.32-123.88-278.2-278.64C263.2,384.49,387.17,260.71,540.82,260.66z M541.44,719.02
		c98.98-0.19,179.96-81.32,179.99-180.32c0.03-99.01-80.9-180.2-179.87-180.45c-99.74-0.25-181.32,81.47-180.9,181.23
		C361.07,638.42,442.41,719.21,541.44,719.02z"/>
	<path class="st0" d="M894.98,250.18c-0.22,36.22-29.73,65.12-65.94,64.59c-35.35-0.52-63.96-29.41-64.13-64.77
		c-0.17-36.27,28.84-65.32,65.21-65.3C866.55,184.73,895.2,213.64,894.98,250.18z"/>
</g>
</svg>
