<?xml version="1.0" encoding="utf-8"?>
<!-- Generator: Adobe Illustrator 24.0.2, SVG Export Plug-In . SVG Version: 6.00 Build 0)  -->
<svg version="1.1" id="Capa_1" xmlns="http://www.w3.org/2000/svg" xmlns:xlink="http://www.w3.org/1999/xlink" x="0px" y="0px"
	 viewBox="0 0 1080 1080" style="enable-background:new 0 0 1080 1080;" xml:space="preserve">
<style type="text/css">
	.st0{fill:#FFFFFF;}
</style>
<g>
	<path class="st0" d="M92.82,0c298.12,0,596.25,0,894.37,0c1.55,0.66,3.04,1.6,4.65,1.93c25.73,5.23,46.66,18.22,63.57,38.25
		c13,15.4,19.29,33.73,24.59,52.63c0,298.12,0,596.25,0,894.37c-0.61,1.2-1.52,2.34-1.79,3.61c-11.5,54.16-54.22,89.15-109.6,89.17
		c-285.77,0.07-571.54,0.07-857.31-0.11c-9.74-0.01-19.75-0.98-29.17-3.35c-49.69-12.47-82.11-55.65-82.11-108.87
		c-0.04-285.07-0.02-570.13-0.02-855.2c0-3.16-0.04-6.33,0.15-9.49C2,72.7,14.65,47.76,36.92,27.36C52.91,12.71,72.43,5.52,92.82,0z
		 M594.12,917.39c0-5.45,0-9.62,0-13.79c0-87.17-0.02-174.35,0.04-261.52c0-6.67,0.23-13.36,0.85-20
		c4.35-46.87,56.38-81.69,101.12-67.78c37.6,11.69,59.65,42.14,59.71,83.35c0.14,88.93,0.05,177.86,0.05,266.79
		c0,4.12,0,8.24,0,12.74c54.52,0,107.75,0,161.55,0c0.15-2.97,0.37-5.36,0.37-7.74c0.01-99.48,0.22-198.95-0.08-298.43
		c-0.18-58.28-23.17-106.81-67.43-144.08c-73.05-61.52-170.06-63.42-241.38,10.92c-4.64,4.84-8.72,10.21-15.21,17.86
		c0-23.2,0-43.04,0-62.74c-54.46,0-107.69,0-160.75,0c0,161.93,0,323.06,0,484.42C486.73,917.39,539.72,917.39,594.12,917.39z
		 M323.32,917.43c0-162.32,0-323.43,0-484.48c-54.03,0-107.26,0-160.39,0c0,161.89,0,323.01,0,484.48
		C216.64,917.43,269.62,917.43,323.32,917.43z M339.9,243.09c0.06-53.59-43.76-97.51-97.06-97.29c-53.4,0.23-97.6,44.67-97.04,97.59
		c0.56,53.43,43.45,96.18,96.81,96.49C296.34,340.2,339.84,296.92,339.9,243.09z"/>
	<path class="st0" d="M1080,92.81c-5.3-18.89-11.59-37.23-24.59-52.63c-16.92-20.03-37.84-33.02-63.57-38.25
		c-1.61-0.33-3.1-1.27-4.65-1.93c30.94,0,61.87,0,92.81,0C1080,30.94,1080,61.87,1080,92.81z"/>
	<path d="M594.12,917.39c-54.4,0-107.39,0-161.16,0c0-161.36,0-322.49,0-484.42c53.06,0,106.29,0,160.75,0c0,19.7,0,39.54,0,62.74
		c6.48-7.65,10.57-13.02,15.21-17.86c71.32-74.34,168.33-72.44,241.38-10.92c44.26,37.27,67.25,85.8,67.43,144.08
		c0.3,99.48,0.09,198.95,0.08,298.43c0,2.39-0.22,4.77-0.37,7.74c-53.8,0-107.03,0-161.55,0c0-4.5,0-8.62,0-12.74
		c0-88.93,0.1-177.86-0.05-266.79c-0.07-41.21-22.11-71.66-59.71-83.35c-44.74-13.91-96.77,20.91-101.12,67.78
		c-0.62,6.64-0.84,13.33-0.85,20c-0.05,87.17-0.04,174.35-0.04,261.52C594.12,907.77,594.12,911.94,594.12,917.39z"/>
	<path d="M323.32,917.43c-53.69,0-106.68,0-160.39,0c0-161.47,0-322.59,0-484.48c53.14,0,106.36,0,160.39,0
		C323.32,594.01,323.32,755.11,323.32,917.43z"/>
	<path d="M339.9,243.09c-0.06,53.83-43.57,97.11-97.3,96.8c-53.36-0.31-96.25-43.06-96.81-96.49
		c-0.56-52.92,43.64-97.37,97.04-97.59C296.14,145.57,339.96,189.49,339.9,243.09z"/>
</g>
</svg>
