<?xml version="1.0" encoding="utf-8"?>
<!-- Generator: Adobe Illustrator 24.0.2, SVG Export Plug-In . SVG Version: 6.00 Build 0)  -->
<svg version="1.1" id="Capa_1" xmlns="http://www.w3.org/2000/svg" xmlns:xlink="http://www.w3.org/1999/xlink" x="0px" y="0px"
	 viewBox="0 0 1080 1080" style="enable-background:new 0 0 1080 1080;" xml:space="preserve">
<style type="text/css">
	.st0{fill:#FFFFFF;}
</style>
<g>
	<path class="st0" d="M128.67,0c14.97,5.66,30.99,9.5,44.71,17.36c28.59,16.38,45.09,42.52,52.64,75.46c4.2,0,8.31,0,12.42,0
		c181.05,0,362.1,0,543.15,0c45.08,0,70.59,25.46,70.59,70.48c0.01,117.07,0.02,234.13-0.01,351.2c0,15.26-6.28,24.1-17.93,25.63
		c-12.57,1.65-22.9-6.53-24.11-19.29c-0.33-3.49-0.13-7.03-0.13-10.54c0-115.66,0-231.32-0.01-346.98c0-21.7-6.63-28.3-28.36-28.3
		c-180.7-0.01-361.4,0-542.09,0c-3.46,0-6.92,0-11.73,0c0,4.76,0,8.84,0,12.92c0,176.13,0,352.26,0,528.38
		c0,19.23-7.12,29.23-20.89,29.38c-13.85,0.15-21.29-9.96-21.29-28.97c0-186.32,0.02-372.65-0.03-558.97
		c-0.01-38.09-22.44-66.68-57.67-73.98c-42.19-8.74-83.17,22.69-85.6,65.68c-0.18,3.16-0.14,6.33-0.14,9.49
		c-0.01,248.9-0.01,497.8-0.01,746.7c0,3.15,0,6.3,0,11.35c34.85-24.78,71.81-32.23,111.14-17.55c39.53,14.76,63,44.36,72.77,85.25
		c187.75,0,375.08,0,563.67,0c-1.72-2.37-2.77-4.32-4.26-5.82c-24.3-24.42-48.48-48.97-73.23-72.92c-3.43-3.32-9.8-5.09-14.81-5.1
		c-132.53-0.27-265.07-0.21-397.61-0.22c-19.82,0-30.07-7.42-29.78-21.54c0.29-13.78,10.12-20.64,29.6-20.64
		c117.07,0,234.13,0,351.2,0c3.78,0,7.57,0,15,0c-13.06-12.79-25.33-22.37-34.49-34.34c-15.85-20.7-35.36-25.79-60.89-25.34
		c-89.97,1.58-179.98,0.61-269.98,0.61c-2.81,0-5.63,0.08-8.44-0.04c-12.86-0.56-21.87-9.12-22.01-20.84
		c-0.14-11.73,8.83-20.62,21.55-21.26c3.16-0.16,6.33-0.05,9.49-0.05c82.97,0,165.93,0,248.9,0c3.71,0,7.42,0,14.22,0
		c-8.48-8.35-15.61-14.07-21.09-21.08c-7.2-9.22-14.02-19.01-19.22-29.44c-3.1-6.21-5.68-8.76-12.87-8.73
		c-71.01,0.31-142.03,0.2-213.04,0.18c-21.05,0-28-6.85-28.01-27.6c-0.02-63.28-0.02-126.56,0-189.84
		c0.01-20.27,6.98-27.22,27.29-27.24c37.26-0.03,74.53-0.01,111.79-0.01c2.11,0,4.22-0.08,6.33,0.05
		c12.15,0.74,20.92,9.32,21.14,20.62c0.23,11.71-8.73,21.24-21.37,21.38c-30.23,0.33-60.47,0.13-90.7,0.14c-3.77,0-7.53,0-11.79,0
		c0,53.64,0,106.23,0,159.57c63.42,0,126.78,0,191.19,0c-9.51-24.99-18.83-49.51-28.19-74.03c-7.26-19.02-14.48-38.04-21.86-57.01
		c-3.81-9.79-4.94-19.21,3.37-27.33c7.91-7.73,16.98-6.78,26.46-3.15c63.57,24.34,127.21,48.5,190.7,73.04
		c5.69,2.2,11.28,5.89,15.61,10.21C813.42,660.08,936.84,783.26,1059.68,907c8.99,9.06,13.65,22.42,20.32,33.78
		c0,7.03,0,14.06,0,21.09c-4.93,17.52-16.14,30.62-29.04,42.87c-15.55,14.76-30.71,29.95-45.49,45.48
		c-12.48,13.12-25.74,24.71-43.6,29.78c-7.03,0-14.06,0-21.09,0c-17.61-4.66-30.67-15.86-42.96-28.71
		c-16.97-17.75-35.13-34.37-51.78-52.4c-8.34-9.03-17.06-12.38-29.21-11.97c-26.19,0.87-52.43,0.27-80.16,0.27
		c0,12.2,0.72,23.4-0.14,34.48c-2.02,25.86-16.06,43.41-39.45,53.83c-3.76,1.68-7.68,3.01-11.52,4.5c-195.47,0-390.94,0-586.41,0
		c-1.57-0.64-3.09-1.54-4.72-1.87c-44.27-8.93-73.76-34.89-88.81-77.31c-2.31-6.5-3.77-13.3-5.62-19.97c0-293.9,0-587.8,0-881.71
		c0.63-1.58,1.56-3.1,1.85-4.73c5.58-31.21,20.93-56.88,47.59-73.6C64.45,11.39,82.48,6.78,99.14,0C108.98,0,118.83,0,128.67,0z
		 M580.27,670.61c94.03,94.02,188.32,188.29,281.92,281.88c30.02-29.83,60.89-60.49,90.74-90.16
		c-94.05-93.99-188.35-188.23-282.05-281.88C640.83,610.35,609.98,641.06,580.27,670.61z M694.28,987.19c-4.74,0-8.89,0-13.03,0
		c-155.98,0-311.97,0.01-467.95-0.01c-19.99,0-26.46-6.04-27.83-25.79c-2.7-39.06-36.05-68.66-75.36-66.91
		c-37.84,1.69-68.19,34.04-67.9,72.37c0.31,40.07,32.58,70.91,74.71,70.93c183.74,0.07,367.47,0.03,551.21,0.02
		c2.81,0,5.69,0.25,8.41-0.28c9.49-1.82,16.61-7.1,17.51-17.01C695.03,1009.84,694.28,999,694.28,987.19z M892.35,986.22
		c15.34,15.28,30.61,30.81,46.27,45.95c7.93,7.67,16.66,8,24.41,0.42c23.38-22.85,46.44-46.03,69.39-69.31
		c6.8-6.9,8.06-15.62,1.22-22.75c-15.75-16.42-32.32-32.06-47.92-47.39C954.82,923.95,924.04,954.63,892.35,986.22z M555.07,630.84
		c25.51-25.65,50.57-50.85,75.51-75.93c-38.89-14.8-79.14-30.12-122.17-46.49C524.89,551.67,540.18,591.79,555.07,630.84z"/>
	<path class="st0" d="M518.37,354.37c-73.42,0-146.84,0.01-220.26-0.01c-21.43,0-28.09-6.78-28.1-28.53
		c-0.01-40.75-0.03-81.5,0.01-122.25c0.02-18.88,7.37-26.38,25.98-26.39c148.6-0.03,297.2-0.03,445.8,0c18.61,0,25.98,7.51,26,26.39
		c0.05,40.75,0.03,81.5,0.01,122.25c-0.01,21.75-6.68,28.52-28.12,28.53C665.91,354.38,592.14,354.37,518.37,354.37z M312.64,311.42
		c138.11,0,275.28,0,412.47,0c0-30.85,0-60.93,0-91.47c-137.68,0-274.85,0-412.47,0C312.64,250.61,312.64,280.69,312.64,311.42z"/>
	<path class="st0" d="M693.95,455.62c-16.12,0-32.25,0.15-48.37-0.05c-14.08-0.17-23.56-9.18-23.23-21.61
		c0.32-12.03,9.55-20.41,23.29-20.47c32.95-0.15,65.9-0.15,98.85,0c13.69,0.06,22.95,8.51,23.24,20.53
		c0.3,12.4-9.21,21.39-23.3,21.55C727.6,455.76,710.77,455.62,693.95,455.62z"/>
	<path class="st0" d="M852.1,594.35c0.27,11.27-8.96,21.08-20.26,21.51c-11.67,0.44-21.77-9.33-21.76-21.06
		c0.01-11.31,9.46-20.84,20.78-20.97C842.16,573.7,851.82,583.03,852.1,594.35z"/>
	<path class="st0" d="M227.73,775.9c0.2,11.6-9.6,21.47-21.2,21.36c-11.2-0.1-20.63-9.46-20.82-20.68
		c-0.2-11.61,9.58-21.46,21.19-21.35C218.12,755.34,227.54,764.69,227.73,775.9z"/>
</g>
</svg>
