<?xml version="1.0" encoding="utf-8"?>
<!-- Generator: Adobe Illustrator 24.0.2, SVG Export Plug-In . SVG Version: 6.00 Build 0)  -->
<svg version="1.1" id="Capa_1" xmlns="http://www.w3.org/2000/svg" xmlns:xlink="http://www.w3.org/1999/xlink" x="0px" y="0px"
	 viewBox="0 0 1080 952.7" style="enable-background:new 0 0 1080 952.7;" xml:space="preserve">
<style type="text/css">
	.st0{fill:#FFFFFF;}
</style>
<g>
	<path class="st0" d="M1080,805.04c-0.94,4.02-2.02,8-2.78,12.05c-15.53,82.72-89.35,139.69-175.21,135.2
		c-79.95-4.19-148.82-70.92-152.9-152.49c-2.86-57.05-2.92-114.49,0.04-171.54c4.5-86.67,80.06-153.86,166.92-152.29
		c82.24,1.48,150.01,60.91,162,142c0.3,2,1.27,3.9,1.93,5.85C1080,684.23,1080,744.63,1080,805.04z M1034.1,714.44
		c0-26.66,1-53.37-0.2-79.98c-2.87-63.59-57.31-114.21-120.88-113.52c-64.88,0.71-118.58,52.87-119.52,117.26
		c-0.74,50.52-0.22,101.05-0.08,151.58c0.02,5.92,0.8,11.89,1.79,17.74c9.99,58.95,64.05,102.81,122.61,99.61
		c63.66-3.48,113.24-51.11,116.05-112.7C1035.08,767.81,1034.07,741.1,1034.1,714.44z"/>
	<path class="st0" d="M957.89,45.75c-282.65,0-564.12,0-846.38,0c0,190.34,0,380.41,0,572.05c4.2,0,8.6,0,12.99,0
		c175.56,0,351.13-0.01,526.69,0.06c5.56,0,11.28,0.32,16.66,1.6c10.27,2.45,16.5,11.26,16.29,21.71
		c-0.2,10.03-6.37,18.28-16.25,20.7c-4.7,1.15-9.7,1.58-14.56,1.58c-185.75,0.08-371.49,0.07-557.24,0.05
		c-22.54,0-30.66-7.91-30.66-30.2c-0.04-201.2-0.04-402.39,0-603.59c0.01-22.03,7.85-29.7,29.87-29.7C388.14,0,680.98,0,973.82,0.01
		c21.5,0,29.67,8.2,29.68,30.04c0.05,116.93,0.04,233.85,0,350.78c-0.01,17.32-5.87,26.11-18.65,28.68
		c-10.82,2.18-21.77-3.6-24.93-14.08c-1.59-5.26-1.94-11.04-1.94-16.59c-0.11-106.39-0.08-212.78-0.08-319.17
		C957.89,55.47,957.89,51.28,957.89,45.75z"/>
	<path class="st0" d="M363.23,715.81c95.87,0,191.75,0,287.62,0.02c4.21,0,8.45-0.04,12.62,0.41c12.52,1.36,20.78,10.37,20.72,22.3
		c-0.06,12.18-8.95,21.69-22.12,22.16c-16.49,0.59-33.01,0.21-49.51,0.24c-5.62,0.01-11.25,0.21-16.85-0.06
		c-5.26-0.25-8.09,1.67-11.83,5.96c-4.56,5.23-12.34,10.09-19.03,10.54c-20.28,1.35-40.76,1.35-61.04-0.01
		c-6.68-0.45-14.45-5.39-18.97-10.65c-3.78-4.39-6.77-5.84-11.95-5.84c-131.69,0.07-263.39,0.04-395.08,0.08
		c-19.06,0.01-31.27,10.65-31,26.73c0.26,15.64,12.23,25.69,30.91,25.69c191.75,0.03,383.49,0,575.24,0.09
		c5.55,0,11.35,0.28,16.59,1.88c9.99,3.05,15.43,12.47,14.43,23.01c-0.93,9.85-7.91,17.64-17.82,19.35
		c-4.12,0.71-8.38,0.89-12.57,0.89c-191.4,0.04-382.79-0.29-574.19,0.26C30.95,859,5.12,826.04,1.64,794.35
		c-4.23-38.56,25.73-75.77,64.52-77.72c26.98-1.36,54.06-0.77,81.09-0.8C219.24,715.76,291.23,715.81,363.23,715.81z"/>
	<path class="st0" d="M337.4,325.49C347.25,198.84,460.39,135.28,545.75,141c83,5.56,174.95,69.62,185.2,183.68
		c14.77,2.1,29.93,2.95,44.36,6.65c15.46,3.96,30.7,9.59,45.14,16.4c11,5.2,14.75,15.87,12.2,25.41
		c-3.84,14.35-18.47,21.14-32.58,14.3c-39.35-19.07-80.51-20.25-122.26-11.87c-11.39,2.29-22.65,7.61-32.75,13.6
		c-39.35,23.36-81.04,36.31-127.25,32.27c-30.95-2.71-60.11-11.65-86.09-28.34c-37.76-24.25-78.64-25.76-120.7-19
		c-13.95,2.24-27.54,7.68-40.81,12.89c-13.94,5.47-25.65,2.97-31.82-8.53c-6.23-11.59-2.74-23.42,10.25-31.25
		c22.15-13.35,46.98-17.76,72.24-20.37C326.43,326.28,331.98,325.93,337.4,325.49z M385.11,327.82
		c29.55,2.68,54.12,18.49,79.91,31.82c38.63,19.97,79,22.82,120.19,8.14c33.49-11.94,61.05-38.06,98.12-39.47
		c5.39-71.06-69.87-142.61-148.84-141.96C437.05,187.16,384.59,269.16,385.11,327.82z"/>
	<path class="st0" d="M544.23,521.7c-42.82,1.37-83.6-7.02-121.94-26.27c-11.78-5.92-16.21-18.07-11.63-29.22
		c4.62-11.25,16.85-15.86,30.01-11.75c21.97,6.87,43.64,15.53,66.12,19.73c35.89,6.71,71.18,1.11,105.02-12.79
		c5.18-2.13,10.23-4.61,15.51-6.47c13.29-4.7,25.09-0.17,30.07,11.26c5,11.47,0.38,23.69-12.1,29.81
		c-28.25,13.86-57.96,22.75-89.51,24.86C551.93,521.13,548.08,521.42,544.23,521.7z"/>
	<path class="st0" d="M936.59,625.08c0,8.43,0.26,16.86-0.06,25.27c-0.56,14.76-9.29,24.3-22.07,24.6
		c-13.02,0.3-22.55-8.48-23.19-23.33c-0.77-17.87-0.74-35.82-0.02-53.69c0.59-14.61,10.44-23.98,22.99-23.72
		c12.68,0.25,21.67,9.94,22.27,24.55C936.88,607.52,936.59,616.3,936.59,625.08z"/>
</g>
</svg>
