<?xml version="1.0" encoding="utf-8"?>
<!-- Generator: Adobe Illustrator 24.0.2, SVG Export Plug-In . SVG Version: 6.00 Build 0)  -->
<svg version="1.1" id="Capa_1" xmlns="http://www.w3.org/2000/svg" xmlns:xlink="http://www.w3.org/1999/xlink" x="0px" y="0px"
	 viewBox="0 0 1080 726.1" style="enable-background:new 0 0 1080 726.1;" xml:space="preserve">
<style type="text/css">
	.st0{fill:#FFFFFF;}
</style>
<g>
	<path class="st0" d="M392.43,726.1c-2.83-1.68-6.09-2.9-8.39-5.12c-5.07-4.9-6.32-11.15-3.81-17.73
		c2.63-6.9,7.99-10.57,15.36-10.82c6.66-0.22,13.33-0.06,20-0.07c8.89,0,17.78,0,26.67,0c1.32,0,2.64,0,4.18,0
		c0-19.88,0-39.31,0-59.19c-2.03,0-3.84,0-5.66,0c-99.03,0-198.07,0.02-297.1-0.01c-25.83-0.01-46.33-16.89-50.94-41.88
		c-0.51-2.78-0.73-5.64-0.73-8.47c-0.05-69.77-0.05-139.54-0.05-209.3c0-1.07,0.11-2.15,0.15-2.77c11.17,0,22.07,0,33.51,0
		c0,1.08,0,2.62,0,4.17c0,67.55,0,135.09,0,202.64c0,2.1-0.07,4.21,0.1,6.29c0.69,8.37,7.31,14.93,15.68,15.57
		c1.72,0.13,3.46,0.09,5.18,0.09c245.49,0,490.97,0,736.46,0c12.32,0,24.65,0.06,36.97-0.02c4.4-0.03,8.79-0.38,13.6-0.6
		c-3.49,10.01-9.26,17.95-17.45,24.11c-9.41,7.07-20.08,10.22-31.84,10.22c-98.42-0.04-196.83-0.02-295.25-0.02
		c-2.32,0-4.64,0-7.2,0c0,19.84,0,39.29,0,59.19c1.55,0,2.88,0,4.21,0c15.31,0,30.62-0.05,45.94,0.02
		c8.52,0.04,15.26,5.48,16.88,13.33c1.58,7.67-2.3,15.49-9.34,18.74c-1.33,0.62-2.73,1.1-4.09,1.65
		C554.44,726.1,473.43,726.1,392.43,726.1z M480.53,692.02c22.73,0,44.98,0,67.15,0c0-19.77,0-39.17,0-58.49
		c-22.61,0-44.87,0-67.15,0C480.53,653.2,480.53,672.53,480.53,692.02z"/>
	<path class="st0" d="M1080,413.43c-2.32,5.8-4,11.96-7.09,17.32c-4.79,8.3-12.45,13.53-21.57,16.53
		c-4.63,1.52-7.62,8.41-5.47,12.67c8.28,16.4,5.44,35.12-7.39,48.23c-5.61,5.73-11.23,11.47-17.07,16.97
		c-12.62,11.89-31.29,14.42-46.79,6.55c-4.51-2.29-11.47,0.53-13.03,5.28c-5.64,17.15-20.74,28.33-38.72,28.55
		c-7.9,0.1-15.81,0.11-23.71-0.01c-17.81-0.27-32.93-11.45-38.51-28.36c-1.68-5.08-8.33-7.65-13.26-5.38
		c-15.93,7.34-31.19,6.03-44.74-5.15c-7.67-6.33-14.77-13.56-21.19-21.17c-11.36-13.47-12.71-28.69-5.52-44.68
		c2.46-5.47-0.04-11.8-5.63-13.68c-16.8-5.64-28.07-21.36-28.07-39.16c0-7.41-0.02-14.82,0.01-22.22
		c0.07-18.32,11.27-33.76,28.63-39.5c4.81-1.59,7.56-8.39,5.26-13.01c-8.03-16.08-5.18-34.77,7.35-47.62
		c5.34-5.48,10.77-10.88,16.23-16.25c13.02-12.79,31.95-15.64,48.23-7.31c4.01,2.05,11.12-0.92,12.55-5.24
		c5.67-17.14,20.21-28.21,38.22-28.77c8.26-0.26,16.55-0.23,24.81,0.01c17.91,0.51,32.68,11.76,38.18,28.8
		c1.39,4.3,8.52,7.24,12.57,5.19c16.43-8.31,35.07-5.49,48.21,7.36c5.38,5.27,10.7,10.6,15.97,15.98
		c12.83,13.1,15.71,31.87,7.45,48.23c-2.08,4.11,0.79,11.08,5.08,12.55c14.81,5.09,24.18,15.22,27.99,30.44
		c0.3,1.19,0.68,2.35,1.02,3.52C1080,391.2,1080,402.32,1080,413.43z M892.34,285.7c-17.13,2.94-32.42,9.49-46.18,18.96
		c-0.5-0.2-0.65-0.22-0.73-0.3c-3.52-3.45-7.02-6.93-10.57-10.36c-4.1-3.96-7.94-4.04-11.99-0.11c-4.88,4.73-9.68,9.53-14.43,14.38
		c-4.21,4.3-4.15,8.32,0.16,12.53c3.59,3.51,7.29,6.89,10.98,10.37c-10.36,14.57-16.48,30.04-19.65,46.79
		c-5.52,0-10.57-0.06-15.63,0.02c-5.21,0.08-8.2,2.82-8.3,7.89c-0.14,7.28-0.14,14.57,0,21.85c0.09,4.89,3.07,7.73,7.98,7.85
		c4.2,0.1,8.4,0.16,12.59-0.03c2.55-0.12,3.65,0.58,4.16,3.28c2.55,13.48,7.63,26.01,14.9,37.64c1.16,1.85,2.38,3.67,3.47,5.35
		c-0.2,0.43-0.23,0.57-0.31,0.65c-3.39,3.42-6.79,6.82-10.18,10.24c-4.35,4.39-4.33,8.34,0.09,12.78c4.62,4.64,9.25,9.25,13.9,13.85
		c4.36,4.31,8.18,4.34,12.44-0.05c3.5-3.61,6.84-7.38,10.27-11.09c14.77,10.4,30.17,16.65,47.03,19.72c0,5.44-0.04,10.49,0.01,15.53
		c0.06,5.53,2.88,8.44,8.44,8.51c6.91,0.09,13.83,0.09,20.74-0.01c5.35-0.08,8.18-2.97,8.28-8.3c0.08-4.44-0.12-8.9,0.14-13.33
		c0.06-1.01,1.33-2.6,2.28-2.8c15.18-3.13,29.23-8.89,42.13-17.5c0.81-0.54,2.85-0.33,3.6,0.33c3.31,2.96,6.33,6.23,9.5,9.34
		c3.81,3.73,7.95,3.79,11.73,0.09c5.02-4.92,10-9.9,14.92-14.92c3.71-3.79,3.67-7.89-0.14-11.7c-3.66-3.66-7.46-7.18-11.29-10.85
		c10.15-14.34,16.43-29.76,19.53-46.71c5.46,0,10.63,0.07,15.8-0.02c5.15-0.09,8.09-2.9,8.19-8.02c0.14-7.04,0.15-14.08,0.03-21.11
		c-0.09-5.75-3.03-8.44-8.89-8.48c-4.2-0.03-8.4-0.1-12.59,0.04c-2.03,0.07-2.78-0.7-3.16-2.63c-0.71-3.63-1.57-7.24-2.6-10.79
		c-3.44-11.83-8.91-22.71-16.39-33.49c3.71-3.48,7.45-6.86,11.05-10.38c4.17-4.07,4.24-8.15,0.24-12.23
		c-4.75-4.85-9.55-9.65-14.4-14.4c-4.2-4.11-8.1-4.11-12.25,0.02c-3.57,3.55-7.01,7.24-10.65,11.02
		c-14.39-9.98-29.72-16.45-46.76-19.41c0-5.29,0.03-10.33-0.01-15.36c-0.04-5.82-2.82-8.69-8.6-8.75c-6.67-0.07-13.34-0.07-20,0
		c-6.18,0.06-8.88,2.9-8.9,9.21C892.32,275.69,892.34,280.6,892.34,285.7z"/>
	<path class="st0" d="M146.44,0c15.52,6.28,29.49,14.95,40.87,27.34c26.47,28.8,35.89,62.8,29.05,101.01
		c-5.47,30.55-21.5,54.79-47.09,72.51c-1.93,1.33-2.33,2.8-2.33,4.94c0.06,23.94,0.2,47.89-0.03,71.83
		c-0.19,20.11-7.97,36.87-24.4,48.74c-33.72,24.34-80.19,6.98-89.92-33.49c-1.37-5.69-1.82-11.72-1.87-17.6
		c-0.2-23.08-0.1-46.16-0.01-69.24c0.01-2.47-0.73-3.96-2.81-5.43C19.9,180.86,4.14,153.75-0.22,119.87
		c-0.15-1.19-0.52-2.36-0.78-3.54c0-6.42,0-12.84,0-19.26c0.26-1.19,0.61-2.37,0.75-3.58c3.74-30.63,17.1-56.04,40.93-75.83
		C49.78,10.1,60.13,4.72,70.87,0c2.72,0,5.43,0,8.15,0c9.85,3.69,13.07,10.96,12.9,21.19C91.51,46.12,91.79,71.07,91.79,96
		c0,1.44,0,2.89,0,4.68c11.5,0,22.53,0,33.97,0c0-1.59,0-3.04,0-4.49c0-26.17,0.01-52.35-0.01-78.52c0-7.67,3.27-13.25,10.35-16.45
		c0.76-0.34,1.46-0.81,2.18-1.22C141.01,0,143.73,0,146.44,0z M159.39,47.14c0,2.21,0,3.52,0,4.84c0,15.93-0.01,31.85,0,47.78
		c0.01,20.19-14.48,34.9-34.65,35.05c-10.49,0.08-20.99,0.04-31.48,0.01c-20.47-0.07-35.01-14.62-35.03-35.02
		c-0.01-15.93,0-31.86,0-47.78c0-1.29,0-2.58,0-4.68c-1.47,1.32-2.3,1.98-3.04,2.73c-36.46,37.42-27.37,101.25,18.19,126.6
		c7.67,4.27,11.08,10.09,11.01,18.82c-0.22,26.54-0.1,53.09-0.06,79.64c0,2.7,0.14,5.45,0.63,8.1c2.69,14.53,16.8,23.7,30.26,19.77
		c10.72-3.13,17.98-13.35,18-25.71c0.06-28.03,0.02-56.06,0.04-84.08c0-6.92,3.01-12.18,9.12-15.38
		c37.94-19.88,52.17-65.78,35.71-104.18C173.87,63.79,167.86,55.2,159.39,47.14z"/>
	<path class="st0" d="M936.19,194.43c-11.3,0-22.11,0-33.22,0c-0.09-2.09-0.2-3.41-0.2-4.72c-0.01-25.81,0-51.62,0-77.43
		c0-12.89-6.7-19.62-19.67-19.62c-208.44-0.01-416.89-0.01-625.33-0.01c-1.84,0-3.68,0-5.38,0c-2.33-11.2-4.6-22.13-6.95-33.45
		c1.04-0.05,2.33-0.18,3.62-0.18c211.53-0.01,423.06-0.01,634.59,0.01c25.65,0,45.8,15.36,51.34,39.08
		c0.78,3.34,1.25,6.83,1.27,10.26c0.1,27.91,0.07,55.82,0.06,83.72C936.33,193.07,936.21,194.04,936.19,194.43z"/>
	<path class="st0" d="M292.11,346.16c14.35,9.23,28.15,18.1,41.94,26.96c17.75,11.41,35.52,22.79,53.25,34.22
		c8.75,5.64,11.16,15.83,5.76,24.07c-5.22,7.97-15.62,9.73-24.17,4.23c-37.56-24.18-75.14-48.32-112.71-72.47
		c-1.45-0.93-2.91-1.87-4.34-2.84c-10.57-7.18-10.57-21.37,0.06-28.54c4.19-2.83,8.5-5.48,12.76-8.22
		c34.14-21.96,68.25-43.96,102.46-65.82c3.04-1.94,6.58-3.65,10.09-4.22c7.73-1.25,14.92,3.43,17.58,10.6
		c2.75,7.4,0.35,15.48-6.39,19.9c-14.03,9.21-28.2,18.21-42.31,27.29c-16.71,10.74-33.43,21.48-50.13,32.22
		C294.84,344.27,293.75,345.04,292.11,346.16z"/>
	<path class="st0" d="M651.77,346.06c-7.68-4.94-14.81-9.54-21.94-14.12c-24.39-15.68-48.8-31.32-73.15-47.06
		c-7.96-5.15-10.73-13.58-7.3-21.42c4.26-9.75,15.53-13.18,24.85-7.3c15.33,9.68,30.55,19.55,45.8,29.36
		c23.56,15.14,47.14,30.24,70.65,45.46c12.56,8.13,12.48,22.2-0.17,30.35c-38.58,24.86-77.2,49.65-115.82,74.44
		c-8.58,5.51-19.02,3.46-24.1-4.62c-5.14-8.17-2.71-18.21,5.95-23.79c30.39-19.58,60.81-39.1,91.22-58.64
		C648.91,348,650.02,347.23,651.77,346.06z"/>
	<path class="st0" d="M438.24,455.75c-12.04,0.02-19.87-11.31-15.72-23.05c5.39-15.23,11.03-30.38,16.55-45.56
		c16.82-46.26,33.64-92.52,50.48-138.77c2.73-7.5,8.46-11.8,15.7-11.97c7.06-0.17,13.32,3.87,16.03,10.44
		c1.89,4.59,1.39,9.09-0.29,13.69c-17.54,48.1-35,96.22-52.49,144.34c-4.8,13.22-9.58,26.45-14.46,39.64
		C451.43,451.58,445.43,455.74,438.24,455.75z"/>
	<path class="st0" d="M911.06,455.76c-32.55,0.05-59-26.26-59.05-58.74c-0.05-32.81,26.2-59.21,58.92-59.26
		c32.78-0.05,59.2,26.24,59.25,58.95C970.24,429.38,943.88,455.71,911.06,455.76z M936.46,396.61
		c-0.04-13.74-11.6-25.27-25.32-25.27c-13.92,0-25.52,11.68-25.4,25.56c0.12,13.85,11.58,25.29,25.32,25.29
		C924.99,422.19,936.5,410.6,936.46,396.61z"/>
</g>
</svg>
