<?xml version="1.0" encoding="utf-8"?>
<!-- Generator: Adobe Illustrator 24.0.2, SVG Export Plug-In . SVG Version: 6.00 Build 0)  -->
<svg version="1.1" id="Capa_1" xmlns="http://www.w3.org/2000/svg" xmlns:xlink="http://www.w3.org/1999/xlink" x="0px" y="0px"
	 viewBox="0 0 1080 760.7" style="enable-background:new 0 0 1080 760.7;" xml:space="preserve">
<style type="text/css">
	.st0{fill:#FFFFFF;}
</style>
<g>
	<path class="st0" d="M1081.7,327.8c-4.4,5-8.5,10.3-13.2,15c-39.1,39.2-78.1,78.4-117.5,117.3c-6,6-8.4,12-8.3,20.4
		c0.4,37,0.5,74,0.1,111c-0.5,49.5-32.5,80.9-82,81c-37.4,0.1-74.7,0.2-112.1-0.2c-7.3-0.1-12.4,2.2-17.5,7.4
		c-15.1,15.8-30.5,31.4-46.4,46.3c-5.1,4.8-12,8.9-18.8,10.5c-35.3,8.4-70.7,16-106.2,23.7c-15.3,3.3-25-5.7-22-21.4
		c4.2-21.8,9.3-43.3,14.2-66.3c-5,0-9,0-13.1,0c-152.6,0-305.3,0-458,0c-40.1,0-69.7-20.9-79.4-56.8c-2.2-8-3-16.7-3-25.1
		C-1.4,421.2-1.4,251.6-1.3,82c0-49.7,32.4-82,82.3-82C340.8,0,600.7,0,860.5,0.1c50.1,0,82.1,31.7,82.4,81.7
		c0.3,48.7,0.1,97.3,0.1,145.9c0,3.8,0,7.5,0,11.2c1.1,0.7,2.2,1.3,3.3,2c5.5-6.2,10.6-12.9,16.7-18.5c8.3-7.8,17.2-7.9,25.3,0.2
		c29.4,29,58.4,58.2,87.6,87.4c2.2,2.2,4,4.8,5.9,7.2C1081.7,320.8,1081.7,324.3,1081.7,327.8z M493.5,33.7
		c-123.4,0-246.7,0-370.1,0c-29.6,0-47.1,16.8-47.1,46.2c-0.2,170.9-0.2,341.9,0.3,512.8c0,9.9,3.9,20.9,9.2,29.4
		c8.2,13.2,22.4,16.8,37.8,16.8c142-0.1,284.1-0.1,426.1-0.1c1.4,0,3.1,0.5,4.2-0.1c2.6-1.5,5.6-3.2,7.2-5.6
		c4.9-7.4,7.8-16.6,13.9-22.7C683.8,501.1,793,392,902.3,282.9c5.1-5.1,7.5-10.2,7.4-17.5c-0.3-60.3-0.1-120.5-0.2-180.8
		c0-34.7-16.4-50.9-51.3-50.9C736.7,33.7,615,33.7,493.5,33.7z M668.8,693.4C776.7,585.5,885,477.1,992.4,369.6
		c-21.1-21-42.7-42.5-63.8-63.5C821.1,413.7,712.8,522,605.1,629.8C625.9,650.5,647.3,671.9,668.8,693.4z M775.9,638.9
		c28.3,0,57,0.1,85.8,0c30.1-0.1,47.4-16.7,47.8-46.8c0.4-27.1,0.1-54.2,0.1-81.3c0-2-0.4-3.9-0.5-5
		C864.8,550.1,820.6,594.2,775.9,638.9z M45.9,45.5c1.6-0.2,0.8-0.3,0.4,0c-1.1,0.8-2.2,1.8-3.1,2.8c-8.5,9.9-10.9,21.6-10.9,34.4
		c0.1,169.2,0.1,338.3,0.1,507.5c0,4.2,0,8.5,0.7,12.7c1.7,11.4,7,19.6,13,23c-1.1-14.3-3.4-29.9-3.4-45.5
		c-0.3-160.7-0.3-321.4,0-482.1C42.7,80.6,44.8,62.9,45.9,45.5z M1018.4,343.5c7.3-6.7,14.8-13.5,21.1-19.3
		c-22-22.1-43.5-43.7-64.7-65c-6.7,6.4-14,13.4-20.8,20C975.7,300.8,997.1,322.2,1018.4,343.5z M633.1,709.8
		c-15.3-15.3-29.7-29.6-44.7-44.6c-4.1,18.4-8.2,36.9-12.6,57.1C596,717.9,614.3,714,633.1,709.8z"/>
	<path class="st0" d="M719.5,336C720,460.4,617.9,562.6,493,562.9c-124.8,0.3-226.6-101.1-227.2-226.2
		C265.2,212.5,367.5,110,492.4,109.8C617,109.5,719,211.1,719.5,336z M492.4,529.3c106.3,0.2,193.2-86.3,193.5-192.7
		c0.3-106.1-86.5-193-193-193.2c-106.3-0.2-193.2,86.4-193.5,192.7C299,442.1,385.9,529,492.4,529.3z"/>
	<path class="st0" d="M944.5,371.4c-3.7,6.1-5.5,11.2-9,14.8c-15.6,16.2-31.6,32-47.7,47.7c-8.3,8.1-18.5,8.3-25.2,1.3
		c-7-7.3-6.6-16.5,2-25.2c15.7-16.1,31.7-31.9,47.7-47.7c5.6-5.6,12.7-9,19.9-4.6C937,360.7,940.1,366.4,944.5,371.4z"/>
	<path class="st0" d="M411.4,335.6c0-24.3-0.1-48.6,0.1-73c0-5.6,0.4-11.3,1.4-16.8c4.6-25.6,27.2-37.5,50.9-26.9
		c4.2,1.9,8.2,4.1,12,6.6c37,23.9,74,47.8,110.9,71.7c4.1,2.7,8.1,5.6,11.7,9c18.7,17.3,18.5,43.4-0.3,60.4
		c-4.2,3.8-8.8,7-13.5,10.1c-35.1,22.9-70.3,45.6-105.6,68.3c-5,3.2-10.3,6.2-15.7,8.6c-23.1,10.5-45.6-1.2-50.3-26.3
		c-1.1-5.9-1.5-11.9-1.5-17.9C411.3,384.9,411.4,360.3,411.4,335.6z M445.7,424.6c4.6-2,7.5-2.9,10-4.5
		c38.2-24.6,76.3-49.2,114.4-74c11.6-7.6,11.4-12.1-0.8-20c-37.5-24.4-75-48.6-112.7-72.8c-3-1.9-6.5-3-11-5
		C445.7,307.6,445.7,364.9,445.7,424.6z"/>
</g>
</svg>
